<?xml version="1.0" encoding="utf-8"?>
<!-- Generator: Adobe Illustrator 23.0.3, SVG Export Plug-In . SVG Version: 6.00 Build 0)  -->
<svg version="1.1" id="Слой_1" xmlns="http://www.w3.org/2000/svg" xmlns:xlink="http://www.w3.org/1999/xlink" x="0px" y="0px"
	 viewBox="0 0 256 256" style="enable-background:new 0 0 256 256;" xml:space="preserve">
<style type="text/css">
	.st0{fill:#3DDC84;}
</style>
<g>
	<path class="st0" d="M186.9,163.2c-5.8,0-10.6-4.8-10.6-10.6c0-5.9,4.8-10.6,10.6-10.6s10.6,4.8,10.6,10.6
		C197.6,158.4,192.8,163.2,186.9,163.2z M69.1,163.2c-5.8,0-10.6-4.8-10.6-10.6c0-5.9,4.8-10.6,10.6-10.6s10.6,4.8,10.6,10.6
		C79.8,158.4,75,163.2,69.1,163.2z M190.8,99.1l21.3-36.9c1.2-2.1,0.5-4.8-1.7-6.1c-2.1-1.2-4.8-0.5-6.1,1.7l-21.6,37.3
		c-16.5-7.5-35.1-11.7-54.8-11.7s-38.3,4.2-54.8,11.7L51.6,57.8c-1.2-2.1-3.9-2.8-6.1-1.7c-2.1,1.2-2.8,3.9-1.7,6.1l21.3,36.9
		C28.7,119,3.6,155.9,0,199.6h256C252.4,155.9,227.3,118.9,190.8,99.1L190.8,99.1z"/>
</g>
</svg>
