<?xml version="1.0" encoding="utf-8"?>
<!-- Generator: Adobe Illustrator 23.0.3, SVG Export Plug-In . SVG Version: 6.00 Build 0)  -->
<svg version="1.1" id="Слой_1" xmlns="http://www.w3.org/2000/svg" xmlns:xlink="http://www.w3.org/1999/xlink" x="0px" y="0px"
	 viewBox="0 0 325 183" style="enable-background:new 0 0 325 183;" xml:space="preserve">
<style type="text/css">
	.st0{fill:#3DDC84;}
</style>
<g>
	<path class="st0" d="M236.8,136.8c-7.4,0-13.5-6.1-13.5-13.5c0-7.5,6.1-13.5,13.5-13.5c7.4,0,13.5,6.1,13.5,13.5
		C250.4,130.8,244.3,136.8,236.8,136.8z M87.2,136.8c-7.4,0-13.5-6.1-13.5-13.5c0-7.5,6.1-13.5,13.5-13.5c7.4,0,13.5,6.1,13.5,13.5
		C100.8,130.8,94.7,136.8,87.2,136.8z M241.7,55.5l27.1-46.8c1.5-2.7,0.6-6.1-2.1-7.7c-2.7-1.5-6.1-0.6-7.7,2.1l-27.4,47.4
		c-21-9.5-44.5-14.9-69.6-14.9s-48.6,5.3-69.6,14.9L65,3.1c-1.5-2.7-5-3.6-7.7-2.1c-2.7,1.5-3.6,5-2.1,7.7l27.1,46.8
		C35.9,80.7,4.1,127.6-0.5,183.1h325C319.9,127.6,288.1,80.6,241.7,55.5L241.7,55.5z"/>
</g>
</svg>
